<svg xmlns="http://www.w3.org/2000/svg" width="1372" height="131" viewBox="0 0 1372 131"><defs><style>.a,.b,.c,.e{fill:none;}.a{stroke:#fda800;}.a,.b,.c{stroke-width:4px;}.b{stroke:#50b1b5;}.c{stroke:#e1302d;}.d{stroke:none;}</style></defs><line class="a" x2="29.985" transform="translate(968.741 25.476)"/><line class="a" x2="29.985" transform="translate(645.828 25.476)"/><line class="a" x2="29.985" transform="translate(322.914 25.476)"/><line class="a" x2="29.985" transform="translate(0 25.476)"/><line class="a" x2="29.985" transform="translate(1048.316 25.476)"/><line class="a" x2="29.985" transform="translate(725.403 25.476)"/><line class="a" x2="29.985" transform="translate(402.489 25.476)"/><line class="a" x2="29.985" transform="translate(79.575 25.476)"/><line class="a" x2="31.715" transform="translate(1129.045 25.476)"/><line class="a" x2="31.715" transform="translate(806.131 25.476)"/><line class="a" x2="31.715" transform="translate(483.217 25.476)"/><line class="a" x2="31.715" transform="translate(160.304 25.476)"/><line class="a" x2="31.715" transform="translate(1210.927 25.476)"/><line class="a" x2="31.715" transform="translate(888.013 25.476)"/><line class="a" x2="31.715" transform="translate(565.099 25.476)"/><line class="a" x2="31.715" transform="translate(242.185 25.476)"/><line class="a" x2="31.715" transform="translate(1291.655 25.476)"/><line class="b" x2="31.715" transform="translate(1346.723 48.83) rotate(90)"/><g class="a" transform="translate(998)"><rect class="d" width="50" height="50" rx="5"/><rect class="e" x="2" y="2" width="46" height="46" rx="3"/></g><g class="a" transform="translate(675)"><rect class="d" width="50" height="50" rx="5"/><rect class="e" x="2" y="2" width="46" height="46" rx="3"/></g><g class="a" transform="translate(352)"><rect class="d" width="50" height="50" rx="5"/><rect class="e" x="2" y="2" width="46" height="46" rx="3"/></g><g class="a" transform="translate(29)"><rect class="d" width="51" height="50" rx="5"/><rect class="e" x="2" y="2" width="47" height="46" rx="3"/></g><g class="a" transform="translate(1078)"><rect class="d" width="51" height="50" rx="5"/><rect class="e" x="2" y="2" width="47" height="46" rx="3"/></g><g class="a" transform="translate(755)"><rect class="d" width="51" height="50" rx="5"/><rect class="e" x="2" y="2" width="47" height="46" rx="3"/></g><g class="a" transform="translate(432)"><rect class="d" width="51" height="50" rx="5"/><rect class="e" x="2" y="2" width="47" height="46" rx="3"/></g><g class="a" transform="translate(110)"><rect class="d" width="50" height="50" rx="5"/><rect class="e" x="2" y="2" width="46" height="46" rx="3"/></g><g class="a" transform="translate(1160)"><rect class="d" width="51" height="50" rx="5"/><rect class="e" x="2" y="2" width="47" height="46" rx="3"/></g><g class="a" transform="translate(837)"><rect class="d" width="51" height="50" rx="5"/><rect class="e" x="2" y="2" width="47" height="46" rx="3"/></g><g class="a" transform="translate(514)"><rect class="d" width="51" height="50" rx="5"/><rect class="e" x="2" y="2" width="47" height="46" rx="3"/></g><g class="a" transform="translate(191)"><rect class="d" width="51" height="50" rx="5"/><rect class="e" x="2" y="2" width="47" height="46" rx="3"/></g><g class="a" transform="translate(1241)"><rect class="d" width="51" height="50" rx="5"/><rect class="e" x="2" y="2" width="47" height="46" rx="3"/></g><g class="a" transform="translate(918)"><rect class="d" width="51" height="50" rx="5"/><rect class="e" x="2" y="2" width="47" height="46" rx="3"/></g><g class="a" transform="translate(595)"><rect class="d" width="51" height="50" rx="5"/><rect class="e" x="2" y="2" width="47" height="46" rx="3"/></g><g class="a" transform="translate(272)"><rect class="d" width="51" height="50" rx="5"/><rect class="e" x="2" y="2" width="47" height="46" rx="3"/></g><g class="b" transform="translate(1322)"><rect class="d" width="50" height="50" rx="5"/><rect class="e" x="2" y="2" width="46" height="46" rx="3"/></g><g class="c" transform="translate(1322 80)"><rect class="d" width="50" height="51" rx="5"/><rect class="e" x="2" y="2" width="46" height="47" rx="3"/></g></svg>