<svg xmlns="http://www.w3.org/2000/svg" width="350" height="114" viewBox="0 0 350 114"><defs><style>.a,.b,.c,.e{fill:none;}.a{stroke:#fda800;}.a,.b,.c{stroke-width:4px;}.b{stroke:#50b1b5;}.c{stroke:#e1302d;}.d{stroke:none;}</style></defs><g transform="translate(0 -151)"><line class="a" x2="26" transform="translate(0 173.5)"/><line class="a" x2="26" transform="translate(69 173.5)"/><line class="a" x2="27.5" transform="translate(139 173.5)"/><line class="a" x2="27.5" transform="translate(210 173.5)"/><line class="a" x2="27.5" transform="translate(280 173.5)"/><line class="b" x2="27.5" transform="translate(327.75 193.75) rotate(90)"/><g class="a" transform="translate(25 151)"><rect class="d" width="44" height="44" rx="5"/><rect class="e" x="2" y="2" width="40" height="40" rx="3"/></g><g class="a" transform="translate(95 151)"><rect class="d" width="44" height="44" rx="5"/><rect class="e" x="2" y="2" width="40" height="40" rx="3"/></g><g class="a" transform="translate(166 151)"><rect class="d" width="44" height="44" rx="5"/><rect class="e" x="2" y="2" width="40" height="40" rx="3"/></g><g class="a" transform="translate(236 151)"><rect class="d" width="44" height="44" rx="5"/><rect class="e" x="2" y="2" width="40" height="40" rx="3"/></g><g class="b" transform="translate(306 151)"><rect class="d" width="44" height="44" rx="5"/><rect class="e" x="2" y="2" width="40" height="40" rx="3"/></g><g class="c" transform="translate(306 221)"><rect class="d" width="44" height="44" rx="5"/><rect class="e" x="2" y="2" width="40" height="40" rx="3"/></g></g></svg>