<svg xmlns="http://www.w3.org/2000/svg" width="40" height="40" viewBox="0 0 40 40"><defs><style>.a{fill:#fff;}.b{fill:#e1302d;}.c{fill:#50b1b5;}.d{fill:#fda800;}</style></defs><g transform="translate(-3011 -764.648)"><path class="a" d="M89.824,97.128a6.516,6.516,0,0,1,1.734,1.659l-1.734,1.378-.658.538a3.765,3.765,0,0,0-1.33-1.2,3.748,3.748,0,0,0-3.243-.149,3.785,3.785,0,0,0-2,2,3.632,3.632,0,0,0-.3,1.464V111.7H79.212V95.981h3.079v1.147a6.811,6.811,0,0,1,1.764-.845,6.789,6.789,0,0,1,4.006,0A6.819,6.819,0,0,1,89.824,97.128Z" transform="translate(2935.427 692.395)"/><circle class="b" cx="8.5" cy="8.5" r="8.5" transform="translate(3034 787.648)"/><circle class="c" cx="8.5" cy="8.5" r="8.5" transform="translate(3034 764.648)"/><circle class="d" cx="8" cy="8" r="8" transform="translate(3011 764.648)"/></g></svg>