<svg xmlns="http://www.w3.org/2000/svg" width="46.153" height="40" viewBox="0 0 46.153 40"><defs><style>.a{fill:#fda800;}.b{fill:#e1302d;}.c{fill:#50b1b5;}</style></defs><g transform="translate(-19.724 -23.76)"><path class="a" d="M21.116,36.992,41.9,45.864a2.287,2.287,0,0,0,1.791,0l20.793-8.872a2.287,2.287,0,0,0,0-4.207L43.7,23.943a2.287,2.287,0,0,0-1.791,0L21.116,32.785a2.287,2.287,0,0,0,0,4.207Z" transform="translate(0 0)"/><path class="b" d="M62.694,58.823,42.8,67.3,22.907,58.823a2.287,2.287,0,1,0-1.791,4.208L41.9,71.872a2.287,2.287,0,0,0,1.791,0L64.485,63.03a2.287,2.287,0,1,0-1.791-4.208Z" transform="translate(0 -8.294)"/><path class="c" d="M62.694,47.183,42.8,55.674,22.907,47.183a2.287,2.287,0,1,0-1.791,4.208L41.9,60.262a2.287,2.287,0,0,0,1.791,0L64.485,51.39a2.287,2.287,0,1,0-1.791-4.208Z" transform="translate(0 -5.526)"/></g></svg>